<?xml version="1.0" standalone="no"?>
<!DOCTYPE svg PUBLIC "-//W3C//DTD SVG 20010904//EN"
 "http://www.w3.org/TR/2001/REC-SVG-20010904/DTD/svg10.dtd">
<svg version="1.0" xmlns="http://www.w3.org/2000/svg"
 width="1201.000000pt" height="1033.000000pt" viewBox="0 0 1201.000000 1033.000000"
 preserveAspectRatio="xMidYMid meet">
<metadata>
Created by potrace 1.16, written by Peter Selinger 2001-2019
</metadata>
<g transform="translate(0.000000,1033.000000) scale(0.100000,-0.100000)"
fill="#fff" stroke="none">
<path d="M9550 9898 c-90 -233 -174 -450 -186 -483 -13 -33 -136 -352 -274
-710 -138 -357 -262 -677 -274 -710 -29 -75 -371 -962 -398 -1030 -31 -79 -64
-164 -90 -235 -14 -36 -123 -319 -243 -630 -120 -311 -229 -592 -241 -625 -13
-33 -59 -152 -102 -265 l-80 -205 -3161 -3 c-2525 -2 -3161 0 -3161 10 0 7 -5
45 -11 83 -5 39 -14 111 -19 160 -6 50 -17 146 -25 215 -8 69 -19 163 -25 210
-5 47 -23 202 -39 345 -17 143 -40 339 -51 435 -11 96 -24 211 -30 255 -5 44
-17 141 -25 215 -8 74 -20 171 -25 215 -5 44 -16 136 -24 205 -8 69 -20 170
-26 225 -6 55 -18 152 -25 215 -8 63 -19 160 -25 215 -6 55 -18 152 -25 215
-8 63 -21 183 -31 265 -9 83 -18 160 -20 173 l-4 22 -450 0 -450 0 0 -53 c0
-28 7 -111 16 -182 8 -72 19 -166 24 -210 5 -44 16 -141 25 -215 9 -74 20
-171 25 -215 5 -44 23 -199 40 -345 17 -146 35 -303 40 -350 5 -47 17 -143 25
-215 9 -71 20 -166 25 -210 17 -150 40 -350 55 -480 9 -71 20 -168 25 -215 5
-47 17 -143 25 -215 9 -71 20 -166 25 -210 13 -116 36 -319 65 -570 15 -121
30 -256 35 -301 5 -44 13 -116 19 -160 6 -43 18 -146 26 -229 9 -82 19 -165
22 -182 l5 -33 3387 -2 3387 -3 -173 -450 c-201 -521 -210 -546 -230 -601 -17
-48 -33 -54 -141 -54 -37 0 -127 -4 -202 -10 -138 -10 -472 -31 -795 -50 -99
-6 -245 -15 -325 -21 -80 -5 -219 -14 -310 -19 -91 -5 -273 -17 -405 -25 -132
-8 -316 -20 -410 -25 -93 -5 -228 -14 -300 -19 -71 -6 -218 -15 -325 -21 -107
-6 -292 -17 -410 -25 -118 -8 -298 -19 -400 -25 -102 -6 -284 -17 -405 -25
-121 -8 -263 -17 -315 -20 -52 -3 -201 -12 -330 -21 -129 -8 -314 -19 -410
-24 -96 -5 -193 -12 -215 -15 -22 -2 -130 -10 -240 -15 -109 -6 -201 -12 -203
-15 -2 -2 -14 -43 -27 -92 -43 -164 -115 -428 -136 -501 -12 -40 -19 -75 -18
-76 2 -2 177 0 389 5 441 9 1339 26 2160 39 311 5 806 14 1100 19 294 6 814
15 1155 21 341 6 838 15 1105 21 267 5 662 12 877 16 347 5 393 8 397 22 3 9
19 70 36 136 27 102 99 298 372 1015 22 58 51 132 64 165 12 33 34 89 47 125
37 98 76 201 92 240 7 19 26 67 40 105 75 199 152 400 180 470 13 33 35 92 50
130 14 39 32 86 39 105 19 49 65 168 81 210 8 19 26 67 40 105 15 39 37 97 50
130 13 33 177 463 365 955 731 1913 1152 3018 1175 3075 13 33 32 81 42 107
l18 48 778 0 777 0 0 560 0 560 -1149 0 -1148 0 -163 -422z"/>
<path d="M7715 1825 c-266 -49 -496 -209 -635 -444 -106 -179 -147 -429 -106
-643 59 -299 279 -562 567 -677 225 -90 503 -82 724 20 328 150 536 478 535
844 -1 508 -419 919 -930 914 -47 0 -116 -7 -155 -14z"/>
<path d="M1134 1625 c-261 -47 -490 -223 -600 -460 -96 -208 -101 -460 -11
-669 80 -190 223 -334 419 -425 112 -52 202 -71 340 -71 667 1 1050 750 663
1295 -180 254 -505 386 -811 330z"/>
</g>
</svg>
